<?xml version="1.0" encoding="utf-8"?>
<!-- Generator: Adobe Illustrator 16.0.0, SVG Export Plug-In . SVG Version: 6.00 Build 0)  -->
<!DOCTYPE svg PUBLIC "-//W3C//DTD SVG 1.1//EN" "http://www.w3.org/Graphics/SVG/1.1/DTD/svg11.dtd">
<svg version="1.1" id="Livello_1" xmlns="http://www.w3.org/2000/svg" xmlns:xlink="http://www.w3.org/1999/xlink" x="0px" y="0px"
	 width="30px" height="30px" viewBox="0 0 30 30" enable-background="new 0 0 30 30" xml:space="preserve">
<path id="path32818" fill="#F49E82" d="M0,0v9.544h30l0,0"/>
<path id="path32820" fill="#F49E82" d="M0,0h30v9.544"/>
<path id="path32822" fill="#F49E82" d="M0,9.544h3.817l0,0H0z"/>
<path id="path32824" fill="#F49E82" d="M0,9.544h5.455H3.817l0,0"/>
<path id="path32826" fill="#F49E82" d="M5.455,9.544L6,10.907h24l0,0"/>
<path id="path32828" fill="#F49E82" d="M5.455,9.544H30v1.363"/>
<path id="path32830" fill="#F49E82" d="M6,10.907l0.545,1.367h19.638l0,0"/>
<path id="path32832" fill="#F49E82" d="M6,10.907h21.819l-1.636,1.367l0,0"/>
<path id="path32834" fill="#F49E82" d="M16.908,12.274l0.546,1.362h8.182l0,0"/>
<path id="path32836" fill="#F49E82" d="M16.908,12.274h9.274l-0.547,1.362l0,0"/>
<path id="path32838" fill="#F49E82" d="M6.545,12.274l0.547,1.362h9.272l0,0"/>
<path id="path32840" fill="#F49E82" d="M6.545,12.274h10.363l-0.544,1.362l0,0"/>
<path id="path32842" fill="#F49E82" d="M7.092,13.637h8.727l0,0H7.092z"/>
<path id="path32844" fill="#F49E82" d="M7.092,13.637h9.272h-0.546l0,0"/>
<path id="path32846" fill="#F49E82" d="M17.454,13.637L18.546,15h6.545l0,0"/>
<path id="path32848" fill="#F49E82" d="M17.454,13.637h8.182L25.091,15l0,0"/>
<path id="path32850" fill="#F49E82" d="M29.455,15H30v1.363"/>
<path id="path32852" fill="#F49E82" d="M27.818,10.907L29.455,15H30l0,0"/>
<path id="path32854" fill="#F49E82" d="M27.818,10.907H30V15"/>
<path id="path32856" fill="#F49E82" d="M7.092,13.637L7.637,15h7.09l0,0"/>
<path id="path32858" fill="#F49E82" d="M7.092,13.637h8.727L14.727,15l0,0"/>
<path id="path32860" fill="#F49E82" d="M0,20.456L0,20.456L0,20.456L0,20.456z"/>
<path id="path32862" fill="#F49E82" d="M18.546,15l1.636,5.456h2.728l0,0"/>
<path id="path32864" fill="#F49E82" d="M18.546,15h6.545l-2.182,5.456l0,0"/>
<path id="path32866" fill="#F49E82" d="M0,9.544v10.912"/>
<path id="path32868" fill="#F49E82" d="M0,9.544h3.817L0,20.456l0,0"/>
<path id="path32870" fill="#F49E82" d="M9.819,20.456h2.18l-1.09,2.726l0,0"/>
<path id="path32872" fill="#F49E82" d="M7.637,15l2.182,5.456h2.18l0,0"/>
<path id="path32874" fill="#F49E82" d="M7.637,15h7.09l-2.728,5.456l0,0"/>
<path id="path32876" fill="#F49E82" d="M21.818,23.182h0.545l0,0"/>
<path id="path32878" fill="#F49E82" d="M20.182,20.456l1.637,2.726h0.545l0,0"/>
<path id="path32880" fill="#F49E82" d="M20.182,20.456h2.728l-0.546,2.726l0,0"/>
<path id="path32882" fill="none" d="M30,0v16.363"/>
<path id="path32884" fill="none" d="M0,0v20.456L3.817,9.544h1.637l1.637,4.093l3.817,9.545L14.727,15l2.182-2.726L18.546,15
	l1.636,5.456l2.182,2.726l3.272-9.545l2.183-2.729L30,16.363"/>
<path id="path32886" fill="none" d="M0,30h30"/>
<path id="path32888" fill="none" d="M0,20.456V30"/>
<path id="path32890" fill="none" d="M30,16.363V30"/>
<path id="path32892" fill="none" d="M0,0h30"/>
</svg>
