<?xml version="1.0" encoding="utf-8"?>
<!-- Generator: Adobe Illustrator 16.0.0, SVG Export Plug-In . SVG Version: 6.00 Build 0)  -->
<!DOCTYPE svg PUBLIC "-//W3C//DTD SVG 1.1//EN" "http://www.w3.org/Graphics/SVG/1.1/DTD/svg11.dtd">
<svg version="1.1" id="Livello_1" xmlns="http://www.w3.org/2000/svg" xmlns:xlink="http://www.w3.org/1999/xlink" x="0px" y="0px"
	 width="30px" height="30px" viewBox="0 0 30 30" enable-background="new 0 0 30 30" xml:space="preserve">
<path id="path32378" fill="#A75492" d="M0,0v1.356h29.969l0,0"/>
<path id="path32380" fill="#A75492" d="M0,1.356h27.03l0,0"/>
<path id="path32382" fill="#A75492" d="M0,1.356h29.969H27.03l0,0"/>
<path id="path32384" fill="#A75492" d="M0.589,1.356l1.762,2.716h23.503l0,0"/>
<path id="path32386" fill="#A75492" d="M0.589,1.356H27.03l-1.176,2.716l0,0"/>
<path id="path32388" fill="#A75492" d="M2.351,4.072v1.357h22.916l0,0"/>
<path id="path32390" fill="#A75492" d="M2.351,4.072h23.503l-0.588,1.357l0,0"/>
<path id="path32392" fill="#A75492" d="M2.351,5.429l1.176,2.712h21.739l0,0"/>
<path id="path32394" fill="#A75492" d="M2.351,5.429h22.916v2.712"/>
<path id="path32396" fill="#A75492" d="M3.527,8.141l1.174,9.498h19.391l0,0"/>
<path id="path32398" fill="#A75492" d="M3.527,8.141h21.739l-1.174,9.498l0,0"/>
<path id="path32400" fill="#A75492" d="M4.702,17.639l0.587,4.072h18.215l0,0"/>
<path id="path32402" fill="#A75492" d="M4.702,17.639h19.391l-0.589,4.072l0,0"/>
<path id="path32404" fill="#A75492" d="M5.289,21.711l1.176,2.713h16.452l0,0"/>
<path id="path32406" fill="#A75492" d="M5.289,21.711h18.215l-0.587,2.713l0,0"/>
<path id="path32408" fill="#A75492" d="M6.465,24.424l2.348,4.072h12.341l0,0"/>
<path id="path32410" fill="#A75492" d="M6.465,24.424h16.452l-1.763,4.072l0,0"/>
<path id="path32412" fill="#A75492" d="M9.403,28.496h10.576l-4.7,1.36l0,0"/>
<path id="path32414" fill="#A75492" d="M8.813,28.496h11.165l0,0"/>
<path id="path32416" fill="#A75492" d="M8.813,28.496h12.341h-1.176l0,0"/>
<path id="path32418" fill="none" d="M0,0l29.969,1.356"/>
<path id="path32420" fill="none" d="M0,0l2.351,4.072l1.176,4.069l1.762,13.57l4.114,6.785l5.876,1.36l5.875-1.36l1.763-4.072
	l1.176-6.785l1.174-12.209l1.764-4.073h2.938"/>
</svg>
