<?xml version="1.0" encoding="utf-8"?>
<!-- Generator: Adobe Illustrator 16.0.0, SVG Export Plug-In . SVG Version: 6.00 Build 0)  -->
<!DOCTYPE svg PUBLIC "-//W3C//DTD SVG 1.1//EN" "http://www.w3.org/Graphics/SVG/1.1/DTD/svg11.dtd">
<svg version="1.1" id="Livello_1" xmlns="http://www.w3.org/2000/svg" xmlns:xlink="http://www.w3.org/1999/xlink" x="0px" y="0px"
	 width="30px" height="30px" viewBox="0 0 30 30" enable-background="new 0 0 30 30" xml:space="preserve">
<path id="path32926" fill="#A6539B" d="M0,0v8.398h30l0,0"/>
<path id="path32928" fill="#A6539B" d="M0,0h30v8.398"/>
<path id="path32930" fill="#A6539B" d="M10.526,8.398H30l0,0"/>
<path id="path32932" fill="#A6539B" d="M10.526,8.398H30l0,0"/>
<path id="path32934" fill="#A6539B" d="M0,8.398h8.948l0,0H0z"/>
<path id="path32936" fill="#A6539B" d="M0,8.398h10.526H8.948l0,0"/>
<path id="path32938" fill="#A6539B" d="M11.052,8.398h18.947l0,0H11.052z"/>
<path id="path32940" fill="#A6539B" d="M11.052,8.398H30l0,0"/>
<path id="path32942" fill="#A6539B" d="M19.474,8.398L20,9.598h10l0,0"/>
<path id="path32944" fill="#A6539B" d="M19.474,8.398H30v1.2"/>
<path id="path32946" fill="#A6539B" d="M11.052,8.398l0.528,1.2h7.367l0,0"/>
<path id="path32948" fill="#A6539B" d="M11.052,8.398h8.422l-0.527,1.2l0,0"/>
<path id="path32950" fill="#A6539B" d="M0,8.398l0.526,1.2H8.42l0,0"/>
<path id="path32952" fill="#A6539B" d="M0,8.398h8.948l-0.527,1.2l0,0"/>
<path id="path32954" fill="#A6539B" d="M20,9.598L21.052,12H30l0,0"/>
<path id="path32956" fill="#A6539B" d="M20,9.598h10V12"/>
<path id="path32958" fill="#A6539B" d="M11.58,9.598L12.631,12h5.79l0,0"/>
<path id="path32960" fill="#A6539B" d="M11.58,9.598h7.367L18.421,12l0,0"/>
<path id="path32962" fill="#A6539B" d="M12.631,12h5.79l0,0H12.631z"/>
<path id="path32964" fill="#A6539B" d="M12.631,12h5.79l0,0"/>
<path id="path32966" fill="#A6539B" d="M0.526,9.598L2.632,18h3.157l0,0"/>
<path id="path32968" fill="#A6539B" d="M0.526,9.598H8.42L5.789,18l0,0"/>
<path id="path32970" fill="#A6539B" d="M3.158,18h2.631l-1.052,2.398l0,0"/>
<path id="path32972" fill="#A6539B" d="M2.632,18h3.157l0,0"/>
<path id="path32974" fill="#A6539B" d="M2.632,18h3.157l0,0"/>
<path id="path32976" fill="#A6539B" d="M14.211,20.398h2.103L15.263,24l0,0"/>
<path id="path32978" fill="#A6539B" d="M12.631,12l1.58,8.398h2.103l0,0"/>
<path id="path32980" fill="#A6539B" d="M12.631,12h5.79l-2.106,8.398l0,0"/>
<path id="path32982" fill="#A6539B" d="M25.788,24h0.527v1.199"/>
<path id="path32984" fill="#A6539B" d="M21.052,12l4.736,12h0.527l0,0"/>
<path id="path32986" fill="#A6539B" d="M21.052,12H30l-3.685,12l0,0"/>
<path id="path32988" fill="none" d="M12.631,12L12.631,12"/>
<path id="path32990" fill="none" d="M30,12v18"/>
<path id="path32992" fill="none" d="M30,0v12"/>
<path id="path32994" fill="none" d="M0.526,9.598L3.158,18l1.579,2.398L5.789,18l3.159-9.602h1.578L12.631,12"/>
<path id="path32996" fill="none" d="M0,30L0.526,9.598"/>
<path id="path32998" fill="none" d="M0,0l0.526,9.598"/>
<path id="path33000" fill="none" d="M15.263,24l4.211-15.602l6.842,16.801L30,12"/>
<path id="path33002" fill="none" d="M12.631,12l2.631,12"/>
<path id="path33004" fill="none" d="M30,30H0"/>
<path id="path33006" fill="none" d="M0,0h30"/>
<path id="path33008" fill="none" d="M0,9.598L0,9.598"/>
</svg>
