<?xml version="1.0" encoding="utf-8"?>
<!-- Generator: Adobe Illustrator 16.0.0, SVG Export Plug-In . SVG Version: 6.00 Build 0)  -->
<!DOCTYPE svg PUBLIC "-//W3C//DTD SVG 1.1//EN" "http://www.w3.org/Graphics/SVG/1.1/DTD/svg11.dtd">
<svg version="1.1" id="Livello_1" xmlns="http://www.w3.org/2000/svg" xmlns:xlink="http://www.w3.org/1999/xlink" x="0px" y="0px"
	 width="30px" height="30px" viewBox="0 0 30 30" enable-background="new 0 0 30 30" xml:space="preserve">
<path id="path33210" fill="#67B32E" d="M11.835,0.152h3.253l0,0H11.835z"/>
<path id="path33212" fill="#67B32E" d="M11.835,0.152H9.232h8.46l0,0"/>
<path id="path33214" fill="#67B32E" d="M11.835,0.152h5.857l0,0"/>
<path id="path33216" fill="#67B32E" d="M9.232,0.152v0.513h8.46l0,0"/>
<path id="path33218" fill="#67B32E" d="M9.232,0.152h8.46v0.513"/>
<path id="path33220" fill="#67B32E" d="M9.232,0.666H6.629h13.667l0,0"/>
<path id="path33222" fill="#67B32E" d="M9.232,0.666h11.064l0,0"/>
<path id="path33224" fill="#67B32E" d="M6.629,0.666h13.664l0,0H6.629z"/>
<path id="path33226" fill="#67B32E" d="M6.629,0.666h13.667l0,0"/>
<path id="path33228" fill="#67B32E" d="M6.629,0.666L4.678,1.691h18.218l0,0"/>
<path id="path33230" fill="#67B32E" d="M6.629,0.666h13.667l2.601,1.026l0,0"/>
<path id="path33232" fill="#67B32E" d="M4.678,1.691h18.218l0,0H4.678z"/>
<path id="path33234" fill="#67B32E" d="M4.678,1.691h18.218l0,0"/>
<path id="path33236" fill="#67B32E" d="M4.678,1.691L2.726,2.207H25.5l0,0"/>
<path id="path33238" fill="#67B32E" d="M4.678,1.691h18.218L25.5,2.207l0,0"/>
<path id="path33240" fill="#67B32E" d="M2.726,2.207v0.513H25.5l0,0"/>
<path id="path33242" fill="#67B32E" d="M2.726,2.207H25.5v0.513"/>
<path id="path33244" fill="#67B32E" d="M2.726,2.719L1.425,3.232h25.377l0,0"/>
<path id="path33246" fill="#67B32E" d="M2.726,2.719H25.5l1.302,0.513l0,0"/>
<path id="path33248" fill="#67B32E" d="M1.425,3.232v0.513h26.028l0,0"/>
<path id="path33250" fill="#67B32E" d="M1.425,3.232h25.377l0.651,0.513l0,0"/>
<path id="path33252" fill="#67B32E" d="M1.425,3.746L0.122,4.773h28.632l0,0"/>
<path id="path33254" fill="#67B32E" d="M1.425,3.746h26.028l1.301,1.028l0,0"/>
<path id="path33256" fill="#67B32E" d="M0.122,4.773h28.632l0,0H0.122z"/>
<path id="path33258" fill="#67B32E" d="M0.122,4.773h28.632l0,0"/>
<path id="path33260" fill="#67B32E" d="M0.122,4.773v1.026h29.281l0,0"/>
<path id="path33262" fill="#67B32E" d="M0.122,4.773h28.632l0.649,1.026l0,0"/>
<path id="path33264" fill="#67B32E" d="M0.122,5.799h29.281l0,0H0.122z"/>
<path id="path33266" fill="#67B32E" d="M0.122,5.799h29.281l0,0"/>
<path id="path33268" fill="#67B32E" d="M0.122,5.799V7.34h29.934l0,0"/>
<path id="path33270" fill="#67B32E" d="M0.122,5.799h29.281l0.652,1.541l0,0"/>
<path id="path33272" fill="#67B32E" d="M0.122,7.34h29.931l0,0H0.122z"/>
<path id="path33274" fill="#67B32E" d="M0.122,7.34h29.934l0,0"/>
<path id="path33276" fill="#67B32E" d="M0.122,7.34l0.652,1.026h29.281l0,0"/>
<path id="path33278" fill="#67B32E" d="M0.122,7.34h29.934v1.026"/>
<path id="path33280" fill="#67B32E" d="M0.774,8.367h29.281l0,0H0.774z"/>
<path id="path33282" fill="#67B32E" d="M0.774,8.367h29.281l0,0"/>
<path id="path33284" fill="#67B32E" d="M0.774,8.367l1.301,1.026h27.328l0,0"/>
<path id="path33286" fill="#67B32E" d="M0.774,8.367h29.281l-0.652,1.026l0,0"/>
<path id="path33288" fill="#67B32E" d="M2.075,9.393v0.515h27.328l0,0"/>
<path id="path33290" fill="#67B32E" d="M2.075,9.393h27.328v0.515"/>
<path id="path33292" fill="#67B32E" d="M2.075,9.908l1.3,1.026h24.727l0,0"/>
<path id="path33294" fill="#67B32E" d="M2.075,9.908h27.328l-1.301,1.026l0,0"/>
<path id="path33296" fill="#67B32E" d="M3.375,10.934h24.727l0,0"/>
<path id="path33298" fill="#67B32E" d="M3.375,10.934h24.727l0,0"/>
<path id="path33300" fill="#67B32E" d="M4.028,10.934l1.951,0.513h20.17l0,0"/>
<path id="path33302" fill="#67B32E" d="M4.028,10.934h24.075l-1.953,0.513l0,0"/>
<path id="path33304" fill="#67B32E" d="M5.979,11.447v0.513h20.17l0,0"/>
<path id="path33306" fill="#67B32E" d="M5.979,11.447h20.17v0.513"/>
<path id="path33308" fill="#67B32E" d="M5.979,11.96l1.953,0.514h16.267l0,0"/>
<path id="path33310" fill="#67B32E" d="M5.979,11.96h20.17l-1.95,0.514l0,0"/>
<path id="path33312" fill="#67B32E" d="M7.932,12.474h16.267l0,0H7.932z"/>
<path id="path33314" fill="#67B32E" d="M7.932,12.474h16.267l0,0"/>
<path id="path33316" fill="#67B32E" d="M7.932,12.474l2.603,0.514h11.711l0,0"/>
<path id="path33318" fill="#67B32E" d="M7.932,12.474h16.267l-1.953,0.514l0,0"/>
<path id="path33320" fill="#67B32E" d="M10.535,12.988h11.061l0,0"/>
<path id="path33322" fill="#67B32E" d="M10.535,12.988h11.711h-0.65l0,0"/>
<path id="path33324" fill="#67B32E" d="M11.185,12.988l2.603,0.512h5.205l0,0"/>
<path id="path33326" fill="#67B32E" d="M11.185,12.988h10.411L18.993,13.5l0,0"/>
<path id="path33328" fill="#67B32E" d="M13.788,13.5h5.205H16.39l0,0"/>
<path id="path33330" fill="#67B32E" d="M13.788,13.5h5.205l0,0H13.788z"/>
<path id="path33332" fill="#67B32E" d="M13.788,13.5h5.205l0,0"/>
<path id="path33334" fill="none" d="M15.089,13.5v16.429"/>
</svg>
