<?xml version="1.0" encoding="utf-8"?>
<!-- Generator: Adobe Illustrator 16.0.0, SVG Export Plug-In . SVG Version: 6.00 Build 0)  -->
<!DOCTYPE svg PUBLIC "-//W3C//DTD SVG 1.1//EN" "http://www.w3.org/Graphics/SVG/1.1/DTD/svg11.dtd">
<svg version="1.1" id="Livello_1" xmlns="http://www.w3.org/2000/svg" xmlns:xlink="http://www.w3.org/1999/xlink" x="0px" y="0px"
	 width="30px" height="30px" viewBox="0 0 30 30" enable-background="new 0 0 30 30" xml:space="preserve">
<path id="path31874" fill="#F3E600" d="M14.924,10.834l-5.597,0.833h10.261l0,0"/>
<path id="path31876" fill="#F3E600" d="M9.328,11.667l-3.732,4.167h18.657l0,0"/>
<path id="path31878" fill="#F3E600" d="M9.328,11.667h10.261l4.664,4.167l0,0"/>
<path id="path31880" fill="#F3E600" d="M5.596,15.834l-1.864,4.167h21.456l0,0"/>
<path id="path31882" fill="#F3E600" d="M5.596,15.834h18.657l0.935,4.167l0,0"/>
<path id="path31884" fill="#F3E600" d="M3.732,20.001V30h21.456l0,0"/>
<path id="path31886" fill="#F3E600" d="M3.732,20.001h21.456V30"/>
<path id="path31888" fill="#2B4B9B" d="M0,0v4.167h29.852l0,0"/>
<path id="path31890" fill="#2B4B9B" d="M0,0h29.852v4.167"/>
<path id="path31892" fill="#2B4B9B" d="M0,4.167v6.667h29.852l0,0"/>
<path id="path31894" fill="#2B4B9B" d="M0,4.167h29.852v6.667"/>
<path id="path31896" fill="#2B4B9B" d="M14.924,10.834l4.665,0.833h10.263l0,0"/>
<path id="path31898" fill="#2B4B9B" d="M14.924,10.834h14.927v0.833"/>
<path id="path31900" fill="#2B4B9B" d="M0,10.834v0.833h9.328l0,0"/>
<path id="path31902" fill="#2B4B9B" d="M0,10.834h14.924l-5.597,0.833l0,0"/>
<path id="path31904" fill="#2B4B9B" d="M19.589,11.667l4.664,4.167h5.599l0,0"/>
<path id="path31906" fill="#2B4B9B" d="M19.589,11.667h10.263v4.167"/>
<path id="path31908" fill="#2B4B9B" d="M0,11.667v4.167h5.596l0,0"/>
<path id="path31910" fill="#2B4B9B" d="M0,11.667h9.328l-3.732,4.167l0,0"/>
<path id="path31912" fill="#2B4B9B" d="M24.253,15.834l0.935,4.167h4.664l0,0"/>
<path id="path31914" fill="#2B4B9B" d="M24.253,15.834h5.599v4.167"/>
<path id="path31916" fill="#2B4B9B" d="M0,15.834v4.167h3.732l0,0"/>
<path id="path31918" fill="#2B4B9B" d="M0,15.834h5.596l-1.864,4.167l0,0"/>
<path id="path31920" fill="#2B4B9B" d="M25.188,20.001v2.498h4.664l0,0"/>
<path id="path31922" fill="#2B4B9B" d="M25.188,20.001h4.664v2.498"/>
<path id="path31924" fill="#2B4B9B" d="M0,20.001v2.498h3.732l0,0"/>
<path id="path31926" fill="#2B4B9B" d="M0,20.001h3.732v2.498"/>
<path id="path31928" fill="none" d="M25.188,20.001V30"/>
<path id="path31930" fill="none" d="M3.732,20.001V30h21.456"/>
<path id="path31932" fill="none" d="M29.852,22.499V0"/>
<path id="path31934" fill="none" d="M25.188,22.499h4.664"/>
<path id="path31936" fill="none" d="M0,22.499h3.732"/>
<path id="path31938" fill="none" d="M25.188,0h4.664"/>
<path id="path31940" fill="none" d="M25.188,0H3.732"/>
<path id="path31942" fill="none" d="M0,4.167V0"/>
<path id="path31944" fill="none" d="M3.732,0H0"/>
<path id="path31946" fill="none" d="M0,4.167v18.333"/>
<g id="g31948" transform="scale(1.00017,0.999834)">
	<path id="path31950" fill="none" d="M25.93,19.665c0-5.21-4.728-9.431-10.556-9.431c-5.835,0-10.559,4.221-10.559,9.431"/>
</g>
</svg>
