<?xml version="1.0" encoding="utf-8"?>
<!-- Generator: Adobe Illustrator 16.0.0, SVG Export Plug-In . SVG Version: 6.00 Build 0)  -->
<!DOCTYPE svg PUBLIC "-//W3C//DTD SVG 1.1//EN" "http://www.w3.org/Graphics/SVG/1.1/DTD/svg11.dtd">
<svg version="1.1" id="Livello_1" xmlns="http://www.w3.org/2000/svg" xmlns:xlink="http://www.w3.org/1999/xlink" x="0px" y="0px"
	 width="30px" height="30px" viewBox="0 0 30 30" enable-background="new 0 0 30 30" xml:space="preserve">
<g id="g43092" transform="scale(1.00017,0.999834)">
	<path id="path43094" fill="none" d="M30.034,14.618c0-8.052-6.571-14.583-14.671-14.583c-8.103,0-14.67,6.532-14.67,14.583
		c0,8.057,6.567,14.586,14.67,14.586C23.463,29.204,30.034,22.675,30.034,14.618"/>
</g>
<path id="path43104" fill="#2B4B9B" d="M15.119,0.657l-5.563,0.79h11.125l0,0"/>
<path id="path43106" fill="#2B4B9B" d="M9.555,1.446L4.787,4.607h20.666l0,0"/>
<path id="path43108" fill="#2B4B9B" d="M9.555,1.446h11.125l4.771,3.161l0,0"/>
<path id="path43112" fill="#2B4B9B" d="M4.787,4.607l-3.18,4.741H28.63l0,0"/>
<path id="path43114" fill="#2B4B9B" d="M4.787,4.607h20.666l3.178,4.741l0,0"/>
<path id="path43124" fill="#2B4B9B" d="M1.607,9.348l-1.59,5.53h29.409l0,0"/>
<path id="path43126" fill="#2B4B9B" d="M1.607,9.348H28.63l0.796,5.53l0,0"/>
<path id="path43138" fill="#2B4B9B" d="M0.017,14.878l1.59,5.533H28.63l0,0"/>
<path id="path43140" fill="#2B4B9B" d="M0.017,14.878h29.409l-0.796,5.533l0,0"/>
<path id="path43150" fill="#2B4B9B" d="M1.607,20.411l3.18,4.74h20.666l0,0"/>
<path id="path43152" fill="#2B4B9B" d="M1.607,20.411H28.63l-3.178,4.74l0,0"/>
<path id="path43158" fill="#2B4B9B" d="M4.787,25.151l4.769,3.161h11.125l0,0"/>
<path id="path43160" fill="#2B4B9B" d="M4.787,25.151h20.666l-4.771,3.161l0,0"/>
<path id="path43166" fill="#2B4B9B" d="M14.324,29.102h1.589l-0.794,0.79l0,0"/>
<path id="path43168" fill="#2B4B9B" d="M9.555,28.312l4.769,0.789h1.589l0,0"/>
<path id="path43170" fill="#2B4B9B" d="M9.555,28.312h11.125l-4.768,0.789l0,0"/>
</svg>
