<?xml version="1.0" encoding="utf-8"?>
<!-- Generator: Adobe Illustrator 16.0.0, SVG Export Plug-In . SVG Version: 6.00 Build 0)  -->
<!DOCTYPE svg PUBLIC "-//W3C//DTD SVG 1.1//EN" "http://www.w3.org/Graphics/SVG/1.1/DTD/svg11.dtd">
<svg version="1.1" id="Livello_1" xmlns="http://www.w3.org/2000/svg" xmlns:xlink="http://www.w3.org/1999/xlink" x="0px" y="0px"
	 width="30px" height="30px" viewBox="0 0 30 30" enable-background="new 0 0 30 30" xml:space="preserve">
<g id="g42900" transform="scale(1.00017,0.999834)">
	<path id="path42902" fill="none" d="M29.885,14.561c0-8.044-6.557-14.568-14.645-14.568c-8.088,0-14.643,6.524-14.643,14.568
		c0,8.054,6.555,14.577,14.643,14.577C23.327,29.138,29.885,22.615,29.885,14.561"/>
</g>
<path id="path42904" fill="#E52620" d="M14.996,0.749L9.442,1.538h11.105l0,0"/>
<path id="path42906" fill="#E52620" d="M9.442,1.538L4.683,4.696H25.31l0,0"/>
<path id="path42908" fill="#E52620" d="M9.442,1.538h11.105l4.763,3.159l0,0"/>
<path id="path42912" fill="#E52620" d="M4.683,4.696L1.508,9.434h26.971l0,0"/>
<path id="path42914" fill="#E52620" d="M4.683,4.696H25.31l3.17,4.738l0,0"/>
<path id="path42924" fill="#E52620" d="M1.508,9.434l-1.587,5.525h29.354l0,0"/>
<path id="path42926" fill="#E52620" d="M1.508,9.434h26.971l0.796,5.525l0,0"/>
<path id="path42938" fill="#E52620" d="M-0.079,14.959l1.587,5.529h26.971l0,0"/>
<path id="path42940" fill="#E52620" d="M-0.079,14.959h29.354l-0.796,5.529l0,0"/>
<path id="path42950" fill="#E52620" d="M1.508,20.488l3.174,4.739H25.31l0,0"/>
<path id="path42952" fill="#E52620" d="M1.508,20.488h26.971l-3.17,4.739l0,0"/>
<path id="path42958" fill="#E52620" d="M4.683,25.228l4.759,3.155h11.105l0,0"/>
<path id="path42960" fill="#E52620" d="M4.683,25.228H25.31l-4.763,3.155l0,0"/>
<path id="path42966" fill="#E52620" d="M14.203,29.961h1.586h-0.793l0,0"/>
<path id="path42968" fill="#E52620" d="M9.442,28.383l4.761,1.578h1.586l0,0"/>
<path id="path42970" fill="#E52620" d="M9.442,28.383h11.105l-4.758,1.578l0,0"/>
</svg>
