<?xml version="1.0" encoding="utf-8"?>
<!-- Generator: Adobe Illustrator 16.0.0, SVG Export Plug-In . SVG Version: 6.00 Build 0)  -->
<!DOCTYPE svg PUBLIC "-//W3C//DTD SVG 1.1//EN" "http://www.w3.org/Graphics/SVG/1.1/DTD/svg11.dtd">
<svg version="1.1" id="Livello_1" xmlns="http://www.w3.org/2000/svg" xmlns:xlink="http://www.w3.org/1999/xlink" x="0px" y="0px"
	 width="30px" height="30px" viewBox="0 0 30 30" enable-background="new 0 0 30 30" xml:space="preserve">
<path id="path41138" fill="#F07F1B" d="M14.992,0.394L8.969,1.151h11.292l0,0"/>
<path id="path41140" fill="#F07F1B" d="M8.969,1.151L4.452,4.168h21.082l0,0"/>
<path id="path41142" fill="#F07F1B" d="M8.969,1.151h11.292l5.271,3.018l0,0"/>
<path id="path41144" fill="#F07F1B" d="M4.452,4.168L2.193,7.943h25.598l0,0"/>
<path id="path41146" fill="#F07F1B" d="M4.452,4.168h21.082l2.258,3.775l0,0"/>
<path id="path41148" fill="#F07F1B" d="M14.992,7.943L18.004,8.7h9.787l0,0"/>
<path id="path41150" fill="#F07F1B" d="M14.992,7.943h12.799V8.7"/>
<path id="path41152" fill="#F07F1B" d="M2.193,7.943L1.44,8.7h9.787l0,0"/>
<path id="path41154" fill="#F07F1B" d="M2.193,7.943h12.799L11.228,8.7l0,0"/>
<path id="path41156" fill="#F07F1B" d="M18.004,8.7l0.753,0.755h9.788l0,0"/>
<path id="path41158" fill="#F07F1B" d="M18.004,8.7h9.787l0.754,0.755l0,0"/>
<path id="path41160" fill="#F07F1B" d="M1.44,8.7v0.755h9.787l0,0"/>
<path id="path41162" fill="#F07F1B" d="M1.44,8.7h9.787v0.755"/>
<path id="path41164" fill="#F07F1B" d="M18.757,9.455l2.26,2.263h7.528l0,0"/>
<path id="path41166" fill="#F07F1B" d="M18.757,9.455h9.788v2.263"/>
<path id="path41168" fill="#F07F1B" d="M1.44,9.455l-0.753,2.263h8.282l0,0"/>
<path id="path41170" fill="#F07F1B" d="M1.44,9.455h9.787l-2.258,2.263l0,0"/>
<path id="path41172" fill="#F07F1B" d="M21.017,11.718l0.752,3.021h7.528l0,0"/>
<path id="path41174" fill="#F07F1B" d="M21.017,11.718h7.528l0.752,3.021l0,0"/>
<path id="path41176" fill="#F07F1B" d="M0.687,11.718l-0.752,3.021h8.281l0,0"/>
<path id="path41178" fill="#F07F1B" d="M0.687,11.718h8.282l-0.754,3.021l0,0"/>
<path id="path41180" fill="#F07F1B" d="M21.769,14.739l-0.752,3.774h7.528l0,0"/>
<path id="path41182" fill="#F07F1B" d="M21.769,14.739h7.528l-0.752,3.774l0,0"/>
<path id="path41184" fill="#F07F1B" d="M-0.065,14.739l0.752,3.774h8.282l0,0"/>
<path id="path41186" fill="#F07F1B" d="M-0.065,14.739h8.281l0.754,3.774l0,0"/>
<path id="path41188" fill="#F07F1B" d="M21.017,18.513l-2.26,2.267h9.788l0,0"/>
<path id="path41190" fill="#F07F1B" d="M21.017,18.513h7.528v2.267"/>
<path id="path41192" fill="#F07F1B" d="M0.687,18.513l0.753,2.267h9.787l0,0"/>
<path id="path41194" fill="#F07F1B" d="M0.687,18.513h8.282l2.258,2.267l0,0"/>
<path id="path41196" fill="#F07F1B" d="M18.757,20.779h-0.753h9.787l0,0"/>
<path id="path41198" fill="#F07F1B" d="M18.757,20.779h9.788h-0.754l0,0"/>
<path id="path41200" fill="#F07F1B" d="M1.44,20.779h9.787l0,0H1.44z"/>
<path id="path41202" fill="#F07F1B" d="M1.44,20.779h9.787l0,0"/>
<path id="path41204" fill="#F07F1B" d="M18.004,20.779l-3.012,0.754h12.799l0,0"/>
<path id="path41206" fill="#F07F1B" d="M18.004,20.779h9.787v0.754"/>
<path id="path41208" fill="#F07F1B" d="M1.44,20.779l0.752,0.754h12.799l0,0"/>
<path id="path41210" fill="#F07F1B" d="M1.44,20.779h9.787l3.765,0.754l0,0"/>
<path id="path41212" fill="#F07F1B" d="M2.193,21.533l2.259,3.774h21.082l0,0"/>
<path id="path41214" fill="#F07F1B" d="M2.193,21.533h25.598l-2.258,3.774l0,0"/>
<path id="path41216" fill="#F07F1B" d="M8.969,28.327h11.292l-5.27,1.51l0,0"/>
<path id="path41218" fill="#F07F1B" d="M4.452,25.308l4.518,3.02h11.292l0,0"/>
<path id="path41220" fill="#F07F1B" d="M4.452,25.308h21.082l-5.271,3.02l0,0"/>
<path id="path41222" fill="none" d="M29.297,14.739H18.004"/>
<path id="path41224" fill="none" d="M29.297,14.739H18.004H29.297z"/>
<g id="g41226" transform="scale(1.00017,0.999834)">
	<path id="path41228" fill="none" d="M29.915,14.825c0-8.134-6.579-14.73-14.691-14.73c-8.111,0-14.69,6.597-14.69,14.73
		c0,8.133,6.578,14.729,14.69,14.729C23.336,29.554,29.915,22.958,29.915,14.825"/>
</g>
<g id="g41230" transform="scale(1.00017,0.999834)">
	<path id="path41232" fill="none" d="M22.123,14.825c0-3.822-3.087-6.919-6.9-6.919c-3.811,0-6.902,3.097-6.902,6.919
		c0,3.821,3.09,6.919,6.902,6.919C19.036,21.744,22.123,18.646,22.123,14.825"/>
</g>
<path id="path41234" fill="none" d="M18.004,14.739l1.505,1.51"/>
<path id="path41236" fill="none" d="M18.004,14.739l1.505-1.51"/>
<path id="path41238" fill="none" d="M14.992,11.718l1.506-1.509"/>
<path id="path41240" fill="none" d="M14.992,11.718l-2.258-1.509"/>
<path id="path41242" fill="none" d="M14.992,14.739L14.992,14.739z"/>
<path id="path41244" fill="none" d="M14.992,14.739L14.992,14.739z"/>
<path id="path41246" fill="none" d="M14.992,17.759l1.506,1.509"/>
<path id="path41248" fill="none" d="M14.992,17.759l-2.258,2.266"/>
<path id="path41250" fill="none" d="M11.98,14.739l-2.258,3.02"/>
<path id="path41252" fill="none" d="M11.98,14.739H9.722"/>
<path id="path41254" fill="none" d="M11.98,14.739l-2.258-1.51"/>
<path id="path41256" fill="none" d="M14.992,17.759v12.078"/>
<path id="path41258" fill="none" d="M11.98,14.739H-0.065"/>
<path id="path41260" fill="none" d="M14.992,11.718V0.394"/>
</svg>
