<?xml version="1.0" encoding="utf-8"?>
<!-- Generator: Adobe Illustrator 16.0.0, SVG Export Plug-In . SVG Version: 6.00 Build 0)  -->
<!DOCTYPE svg PUBLIC "-//W3C//DTD SVG 1.1//EN" "http://www.w3.org/Graphics/SVG/1.1/DTD/svg11.dtd">
<svg version="1.1" id="Livello_1" xmlns="http://www.w3.org/2000/svg" xmlns:xlink="http://www.w3.org/1999/xlink" x="0px" y="0px"
	 width="30px" height="30px" viewBox="0 0 30 30" enable-background="new 0 0 30 30" xml:space="preserve">
<path id="path31810" fill="#F3E600" d="M14.93,10.234l-1.868,0.855h3.732l0,0"/>
<path id="path31812" fill="#F3E600" d="M13.062,11.089h-1.865h7.463l0,0"/>
<path id="path31814" fill="#F3E600" d="M13.062,11.089h5.598l0,0"/>
<path id="path31816" fill="#F3E600" d="M11.197,11.089L9.33,11.941h11.198l0,0"/>
<path id="path31818" fill="#F3E600" d="M11.197,11.089h7.463l1.867,0.852l0,0"/>
<path id="path31820" fill="#F3E600" d="M9.33,11.941l-1.864,1.705h14.926l0,0"/>
<path id="path31822" fill="#F3E600" d="M9.33,11.941h11.198l1.864,1.705l0,0"/>
<path id="path31824" fill="#F3E600" d="M7.465,13.646l-1.865,0.853h17.724l0,0"/>
<path id="path31826" fill="#F3E600" d="M7.465,13.646h14.926l0.933,0.853l0,0"/>
<path id="path31828" fill="#F3E600" d="M5.601,14.499l-0.936,1.707H24.26l0,0"/>
<path id="path31830" fill="#F3E600" d="M5.601,14.499h17.724l0.936,1.707l0,0"/>
<path id="path31832" fill="#F3E600" d="M4.665,16.206v2.557h20.527l0,0"/>
<path id="path31834" fill="#F3E600" d="M4.665,16.206H24.26l0.933,2.557l0,0"/>
<path id="path31836" fill="#F3E600" d="M4.665,18.763v1.708h20.527l0,0"/>
<path id="path31838" fill="#F3E600" d="M4.665,18.763h20.527v1.708"/>
<path id="path31840" fill="#F3E600" d="M4.665,20.471v9.382h20.527l0,0"/>
<path id="path31842" fill="#F3E600" d="M4.665,20.471h20.527v9.382"/>
<path id="path31952" fill="none" d="M25.192,20.471v9.382"/>
<path id="path31954" fill="none" d="M4.665,20.471v9.382h20.527"/>
<path id="path31956" fill="none" d="M29.857,23.028V0"/>
<path id="path31958" fill="none" d="M25.192,23.028h4.665"/>
<path id="path31960" fill="none" d="M0,23.028h4.665"/>
<path id="path31962" fill="none" d="M25.192,0h4.665"/>
<path id="path31964" fill="none" d="M25.192,0H4.665"/>
<path id="path31966" fill="none" d="M0,3.412V0"/>
<path id="path31968" fill="none" d="M4.665,0H0"/>
<path id="path31970" fill="none" d="M0,3.412v19.616"/>
<g id="g31972" transform="scale(1.00017,0.999834)">
	<path id="path31974" fill="none" d="M25.847,20.044c0-5.332-4.728-9.656-10.561-9.656S4.722,14.712,4.722,20.044"/>
</g>
</svg>
