<?xml version="1.0" encoding="utf-8"?>
<!-- Generator: Adobe Illustrator 16.0.0, SVG Export Plug-In . SVG Version: 6.00 Build 0)  -->
<!DOCTYPE svg PUBLIC "-//W3C//DTD SVG 1.1//EN" "http://www.w3.org/Graphics/SVG/1.1/DTD/svg11.dtd">
<svg version="1.1" id="Livello_1" xmlns="http://www.w3.org/2000/svg" xmlns:xlink="http://www.w3.org/1999/xlink" x="0px" y="0px"
	 width="30px" height="30px" viewBox="0 0 30 30" enable-background="new 0 0 30 30" xml:space="preserve">
<path id="path33336" fill="#010202" d="M29.394-0.012L24.889,3.82h3.752l0,0"/>
<path id="path33338" fill="#010202" d="M24.889,3.82l-2.251,5.365h4.504l0,0"/>
<path id="path33340" fill="#010202" d="M24.889,3.82h3.752l-1.499,5.365l0,0"/>
<path id="path33342" fill="#010202" d="M22.638,9.186l-0.75,2.3h4.503l0,0"/>
<path id="path33344" fill="#010202" d="M22.638,9.186h4.504l-0.751,2.3l0,0"/>
<path id="path33346" fill="#010202" d="M21.888,11.486v3.833h4.503l0,0"/>
<path id="path33348" fill="#010202" d="M21.888,11.486h4.503v3.833"/>
<path id="path33350" fill="#010202" d="M14.381,16.852l-5.255,0.766h9.009l0,0"/>
<path id="path33352" fill="#010202" d="M9.126,17.617h-0.75h11.259l0,0"/>
<path id="path33354" fill="#010202" d="M9.126,17.617h10.509l0,0"/>
<path id="path33356" fill="#010202" d="M21.888,15.318l2.25,4.6h2.253l0,0"/>
<path id="path33358" fill="#010202" d="M21.888,15.318h4.503v4.6"/>
<path id="path33360" fill="#010202" d="M8.375,17.617l-3.753,2.301h18.765l0,0"/>
<path id="path33362" fill="#010202" d="M8.375,17.617h11.259l3.753,2.301l0,0"/>
<path id="path33364" fill="#010202" d="M24.138,19.918v0.766h2.253l0,0"/>
<path id="path33366" fill="#010202" d="M24.138,19.918h2.253v0.766"/>
<path id="path33368" fill="#010202" d="M4.623,19.918l-0.75,0.766h20.266l0,0"/>
<path id="path33370" fill="#010202" d="M4.623,19.918h18.765l0.75,0.766l0,0"/>
<path id="path33372" fill="#010202" d="M3.872,20.684v0.766h22.519l0,0"/>
<path id="path33374" fill="#010202" d="M3.872,20.684h22.519v0.766"/>
<path id="path33376" fill="#010202" d="M21.135,22.219h5.256l0.751,1.532l0,0"/>
<path id="path33378" fill="#010202" d="M19.635,21.449l1.5,0.77h5.256l0,0"/>
<path id="path33380" fill="#010202" d="M19.635,21.449h6.756v0.77"/>
<path id="path33382" fill="#010202" d="M3.872,21.449l-0.75,0.77h9.757l0,0"/>
<path id="path33384" fill="#010202" d="M3.872,21.449h15.763l-6.756,0.77l0,0"/>
<path id="path33386" fill="#010202" d="M3.122,22.219l-1.502,2.297h4.503l0,0"/>
<path id="path33388" fill="#010202" d="M3.122,22.219h9.757l-6.756,2.297l0,0"/>
<path id="path33390" fill="#010202" d="M1.619,25.282h4.503l-6.003,4.602l0,0"/>
<path id="path33392" fill="#010202" d="M1.619,24.516v0.767h4.503l0,0"/>
<path id="path33394" fill="#010202" d="M1.619,24.516h4.503v0.767"/>
<g id="g33396" transform="scale(1.00017,0.999834)">
	<path id="path33398" fill="none" d="M30.002,0.135c-4.847,2.471-7.913,7.532-7.913,13.063c0,2.785,0.781,5.515,2.253,7.861"/>
</g>
<g id="g33400" transform="scale(1.00017,0.999834)">
	<path id="path33402" fill="none" d="M24.426,20.405c-2.583-2.88-6.233-4.522-10.053-4.522c-7.364,0-13.398,5.969-13.628,13.482"/>
</g>
<g id="g33404" transform="scale(1.00017,0.999834)">
	<path id="path33406" fill="none" d="M27.176,23.494c-3.002-1.629-6.357-2.48-9.76-2.48c-6.533,0-12.687,3.134-16.615,8.465"/>
</g>
<g id="g33408" transform="scale(1.00017,0.999834)">
	<path id="path33410" fill="none" d="M30.005,0.05c-2.394,5.196-3.641,10.866-3.641,16.607c0,2.451,0.226,4.891,0.678,7.297"/>
</g>
</svg>
