<?xml version="1.0" encoding="utf-8"?>
<!-- Generator: Adobe Illustrator 16.0.0, SVG Export Plug-In . SVG Version: 6.00 Build 0)  -->
<!DOCTYPE svg PUBLIC "-//W3C//DTD SVG 1.1//EN" "http://www.w3.org/Graphics/SVG/1.1/DTD/svg11.dtd">
<svg version="1.1" id="Livello_1" xmlns="http://www.w3.org/2000/svg" xmlns:xlink="http://www.w3.org/1999/xlink" x="0px" y="0px"
	 width="30px" height="30px" viewBox="0 0 30 30" enable-background="new 0 0 30 30" xml:space="preserve">
<path id="path41722" fill="none" d="M0,0h30"/>
<path id="path41724" fill="none" d="M30,30H0"/>
<path id="path41726" fill="#2B4B9B" d="M0,0h1.363l0,0H0z"/>
<path id="path41728" fill="#2B4B9B" d="M0,0v0.769h4.09l0,0"/>
<path id="path41730" fill="#2B4B9B" d="M0,0h1.363L4.09,0.769l0,0"/>
<path id="path41732" fill="#2B4B9B" d="M0,0.769v1.538h5.454l0,0"/>
<path id="path41734" fill="#2B4B9B" d="M0,0.769h4.09l1.363,1.538l0,0"/>
<path id="path41736" fill="#2B4B9B" d="M0,2.306v1.54h6.818l0,0"/>
<path id="path41738" fill="#2B4B9B" d="M0,2.306h5.454l1.365,1.54l0,0"/>
<path id="path41740" fill="#2B4B9B" d="M0,3.846v2.306h8.182l0,0"/>
<path id="path41742" fill="#2B4B9B" d="M0,3.846h6.818l1.363,2.306l0,0"/>
<path id="path41744" fill="#2B4B9B" d="M0,6.152v2.309h9.544l0,0"/>
<path id="path41746" fill="#2B4B9B" d="M0,6.152h8.182l1.362,2.309l0,0"/>
<path id="path41748" fill="#2B4B9B" d="M0,8.461v2.307h10.91l0,0"/>
<path id="path41750" fill="#2B4B9B" d="M0,8.461h9.544l1.366,2.307l0,0"/>
<path id="path41752" fill="#2B4B9B" d="M0,10.768v3.078h10.91l0,0"/>
<path id="path41754" fill="#2B4B9B" d="M0,10.768h10.91v3.078"/>
<path id="path41756" fill="#2B4B9B" d="M0,13.846v3.077h10.91l0,0"/>
<path id="path41758" fill="#2B4B9B" d="M0,13.846h10.91v3.077"/>
<path id="path41760" fill="#2B4B9B" d="M0,16.923v2.31h10.91l0,0"/>
<path id="path41762" fill="#2B4B9B" d="M0,16.923h10.91v2.31"/>
<path id="path41764" fill="#2B4B9B" d="M0,19.232v3.074h9.544l0,0"/>
<path id="path41766" fill="#2B4B9B" d="M0,19.232h10.91l-1.366,3.074l0,0"/>
<path id="path41768" fill="#2B4B9B" d="M0,22.307v2.309h8.182l0,0"/>
<path id="path41770" fill="#2B4B9B" d="M0,22.307h9.544l-1.362,2.309l0,0"/>
<path id="path41772" fill="#2B4B9B" d="M0,24.615v1.539h6.818l0,0"/>
<path id="path41774" fill="#2B4B9B" d="M0,24.615h8.182l-1.363,1.539l0,0"/>
<path id="path41776" fill="#2B4B9B" d="M0,26.154v1.539h5.454l0,0"/>
<path id="path41778" fill="#2B4B9B" d="M0,26.154h6.818l-1.365,1.539l0,0"/>
<path id="path41780" fill="#2B4B9B" d="M0,27.693v1.537h4.09l0,0"/>
<path id="path41782" fill="#2B4B9B" d="M0,27.693h5.454L4.09,29.23l0,0"/>
<path id="path41784" fill="#2B4B9B" d="M0,30h1.363H0L0,30"/>
<path id="path41786" fill="#2B4B9B" d="M0,29.23V30h1.363l0,0"/>
<path id="path41788" fill="#2B4B9B" d="M0,29.23h4.09L1.363,30l0,0"/>
<path id="path41790" fill="none" d="M0,30V0"/>
<path id="path41792" fill="none" d="M0,30h1.363l2.727-0.77l1.363-1.537l1.365-1.539l1.363-1.539l1.362-2.309l1.366-3.074v-8.464
	L9.544,8.461L8.182,6.152L6.818,3.846l-1.365-1.54L4.09,0.769L1.363,0H0"/>
<path id="path41794" fill="#2B4B9B" d="M27.273,0l-2.729,1.538H30l0,0"/>
<path id="path41796" fill="#2B4B9B" d="M27.273,0H30v1.538"/>
<path id="path41798" fill="#2B4B9B" d="M24.544,1.538l-1.362,1.537H30l0,0"/>
<path id="path41800" fill="#2B4B9B" d="M24.544,1.538H30v1.537"/>
<path id="path41802" fill="#2B4B9B" d="M23.182,3.075l-1.363,1.541H30l0,0"/>
<path id="path41804" fill="#2B4B9B" d="M23.182,3.075H30v1.541"/>
<path id="path41806" fill="#2B4B9B" d="M21.818,4.615l-1.362,3.078H30l0,0"/>
<path id="path41808" fill="#2B4B9B" d="M21.818,4.615H30v3.078"/>
<path id="path41810" fill="#2B4B9B" d="M20.456,7.693L19.091,10H30l0,0"/>
<path id="path41812" fill="#2B4B9B" d="M20.456,7.693H30V10"/>
<path id="path41814" fill="#2B4B9B" d="M19.091,10v3.078H30l0,0"/>
<path id="path41816" fill="#2B4B9B" d="M19.091,10H30v3.078"/>
<path id="path41818" fill="#2B4B9B" d="M19.091,13.077v3.077H30l0,0"/>
<path id="path41820" fill="#2B4B9B" d="M19.091,13.077H30v3.077"/>
<path id="path41822" fill="#2B4B9B" d="M19.091,16.154v3.078H30l0,0"/>
<path id="path41824" fill="#2B4B9B" d="M19.091,16.154H30v3.078"/>
<path id="path41826" fill="#2B4B9B" d="M19.091,19.232v2.306H30l0,0"/>
<path id="path41828" fill="#2B4B9B" d="M19.091,19.232H30v2.306"/>
<path id="path41830" fill="#2B4B9B" d="M19.091,21.538l1.365,3.077H30l0,0"/>
<path id="path41832" fill="#2B4B9B" d="M19.091,21.538H30v3.077"/>
<path id="path41834" fill="#2B4B9B" d="M20.456,24.615l1.362,2.31H30l0,0"/>
<path id="path41836" fill="#2B4B9B" d="M20.456,24.615H30v2.31"/>
<path id="path41838" fill="#2B4B9B" d="M21.818,26.925l1.363,1.538H30l0,0"/>
<path id="path41840" fill="#2B4B9B" d="M21.818,26.925H30v1.538"/>
<path id="path41842" fill="#2B4B9B" d="M23.182,28.463l1.362,0.768H30l0,0"/>
<path id="path41844" fill="#2B4B9B" d="M23.182,28.463H30v0.768"/>
<path id="path41846" fill="#2B4B9B" d="M24.544,29.23L27.273,30H30l0,0"/>
<path id="path41848" fill="#2B4B9B" d="M24.544,29.23H30V30"/>
<path id="path41850" fill="none" d="M30,0v30"/>
<path id="path41852" fill="none" d="M27.273,0l-2.729,1.538l-1.362,1.537l-1.363,1.541l-1.362,3.078L19.091,10v11.539l1.365,3.077
	l1.362,2.31l1.363,1.538l1.362,0.768L27.273,30"/>
</svg>
