<?xml version="1.0" encoding="utf-8"?>
<!-- Generator: Adobe Illustrator 16.0.0, SVG Export Plug-In . SVG Version: 6.00 Build 0)  -->
<!DOCTYPE svg PUBLIC "-//W3C//DTD SVG 1.1//EN" "http://www.w3.org/Graphics/SVG/1.1/DTD/svg11.dtd">
<svg version="1.1" id="Livello_1" xmlns="http://www.w3.org/2000/svg" xmlns:xlink="http://www.w3.org/1999/xlink" x="0px" y="0px"
	 width="30px" height="30px" viewBox="0 0 30 30" enable-background="new 0 0 30 30" xml:space="preserve">
<path id="path32034" fill="none" d="M30,0v30"/>
<path id="path32036" fill="none" d="M0,30V0"/>
<path id="path32038" fill="none" d="M0,12.501l8.333-2.503l7.501,6.25l5,10.004l4.167,2.498L30,25.003"/>
<path id="path32040" fill="none" d="M0,0h30"/>
<path id="path32042" fill="#A6539B" d="M0,9.999h8.333L0,12.501l0,0"/>
<path id="path32044" fill="#A6539B" d="M0,0v9.999h30l0,0"/>
<path id="path32046" fill="#A6539B" d="M0,0h30v9.999"/>
<path id="path32048" fill="#A6539B" d="M8.333,9.999l2.499,2.503H30l0,0"/>
<path id="path32050" fill="#A6539B" d="M8.333,9.999H30v2.503"/>
<path id="path32052" fill="#A6539B" d="M10.832,12.501l5.002,3.748H30l0,0"/>
<path id="path32054" fill="#A6539B" d="M10.832,12.501H30v3.748"/>
<path id="path32056" fill="#A6539B" d="M15.834,16.249l4.167,8.754H30l0,0"/>
<path id="path32058" fill="#A6539B" d="M15.834,16.249H30v8.754"/>
<path id="path32060" fill="#A6539B" d="M20.834,26.253h7.501l-3.334,2.498l0,0"/>
<path id="path32062" fill="#A6539B" d="M20.001,25.003l0.833,1.25h7.501l0,0"/>
<path id="path32064" fill="#A6539B" d="M20.001,25.003H30l-1.665,1.25l0,0"/>
<path id="path32066" fill="none" d="M30,30H0"/>
</svg>
