<?xml version="1.0" encoding="utf-8"?>
<!-- Generator: Adobe Illustrator 16.0.0, SVG Export Plug-In . SVG Version: 6.00 Build 0)  -->
<!DOCTYPE svg PUBLIC "-//W3C//DTD SVG 1.1//EN" "http://www.w3.org/Graphics/SVG/1.1/DTD/svg11.dtd">
<svg version="1.1" id="Livello_1" xmlns="http://www.w3.org/2000/svg" xmlns:xlink="http://www.w3.org/1999/xlink" x="0px" y="0px"
	 width="30px" height="30px" viewBox="0 0 30 30" enable-background="new 0 0 30 30" xml:space="preserve">
<path id="path42988" fill="#F3E600" d="M15.172,0.634L9.608,1.426h11.127l0,0"/>
<path id="path42990" fill="#F3E600" d="M9.608,1.426L4.841,4.594h20.665l0,0"/>
<path id="path42992" fill="#F3E600" d="M9.608,1.426h11.127l4.771,3.168l0,0"/>
<path id="path42996" fill="#F3E600" d="M4.841,4.594l-3.18,4.75h27.021l0,0"/>
<path id="path42998" fill="#F3E600" d="M4.841,4.594h20.665l3.177,4.75l0,0"/>
<path id="path43008" fill="#F3E600" d="M1.661,9.345l-1.59,5.542h29.408l0,0"/>
<path id="path43010" fill="#F3E600" d="M1.661,9.345h27.021l0.797,5.542l0,0"/>
<path id="path43022" fill="#F3E600" d="M0.071,14.887l1.59,5.545h27.021l0,0"/>
<path id="path43024" fill="#F3E600" d="M0.071,14.887h29.408l-0.797,5.545l0,0"/>
<path id="path43034" fill="#F3E600" d="M1.661,20.432l3.18,4.751h20.665l0,0"/>
<path id="path43036" fill="#F3E600" d="M1.661,20.432h27.021l-3.177,4.751l0,0"/>
<path id="path43042" fill="#F3E600" d="M4.841,25.183l4.768,3.169h11.127l0,0"/>
<path id="path43044" fill="#F3E600" d="M4.841,25.183h20.665l-4.771,3.169l0,0"/>
<path id="path43050" fill="#F3E600" d="M14.378,29.934h1.588h-0.794l0,0"/>
<path id="path43052" fill="#F3E600" d="M9.608,28.352l4.77,1.582h1.588l0,0"/>
<path id="path43054" fill="#F3E600" d="M9.608,28.352h11.127l-4.769,1.582l0,0"/>
<g id="g43080" transform="scale(1.00017,0.999834)">
	<path id="path43082" fill="none" d="M30.088,14.725c0-8.073-6.571-14.616-14.67-14.616c-8.104,0-14.669,6.544-14.669,14.616
		c0,8.072,6.566,14.616,14.669,14.616C23.517,29.341,30.088,22.797,30.088,14.725"/>
</g>
</svg>
