<?xml version="1.0" encoding="utf-8"?>
<!-- Generator: Adobe Illustrator 16.0.0, SVG Export Plug-In . SVG Version: 6.00 Build 0)  -->
<!DOCTYPE svg PUBLIC "-//W3C//DTD SVG 1.1//EN" "http://www.w3.org/Graphics/SVG/1.1/DTD/svg11.dtd">
<svg version="1.1" id="Livello_1" xmlns="http://www.w3.org/2000/svg" xmlns:xlink="http://www.w3.org/1999/xlink" x="0px" y="0px"
	 width="30px" height="30px" viewBox="0 0 30 30" enable-background="new 0 0 30 30" xml:space="preserve">
<path id="path31976" fill="#F07F1B" d="M8.333,10.001L0,12.5h11.667l0,0"/>
<path id="path31978" fill="#F07F1B" d="M0,12.5v3.752h15.834l0,0"/>
<path id="path31980" fill="#F07F1B" d="M0,12.5h11.667l4.167,3.752l0,0"/>
<path id="path31982" fill="#F07F1B" d="M30,23.75l-1.666,2.498H30l0,0"/>
<path id="path31984" fill="#F07F1B" d="M0,16.252v9.996h21.667l0,0"/>
<path id="path31986" fill="#F07F1B" d="M0,16.252h15.834l5.833,9.996l0,0"/>
<path id="path31988" fill="#F07F1B" d="M28.334,26.248L25,28.752h5l0,0"/>
<path id="path31990" fill="#F07F1B" d="M28.334,26.248H30v2.504"/>
<path id="path31992" fill="#F07F1B" d="M0,26.248v2.504h25l0,0"/>
<path id="path31994" fill="#F07F1B" d="M0,26.248h21.667L25,28.752l0,0"/>
<path id="path31996" fill="#F07F1B" d="M0,28.752V30h30l0,0"/>
<path id="path31998" fill="#F07F1B" d="M0,28.752h30V30"/>
<path id="path32000" fill="none" d="M0,30V0"/>
<path id="path32002" fill="none" d="M30,30H0"/>
<path id="path32004" fill="none" d="M30,0v30"/>
<path id="path32006" fill="#A6539B" d="M0,10.001h8.333L0,12.5l0,0"/>
<path id="path32008" fill="#A6539B" d="M0,0v10.001h30l0,0"/>
<path id="path32010" fill="#A6539B" d="M0,0h30v10.001"/>
<path id="path32012" fill="#A6539B" d="M8.333,10.001l3.333,2.499H30l0,0"/>
<path id="path32014" fill="#A6539B" d="M8.333,10.001H30V12.5"/>
<path id="path32016" fill="#A6539B" d="M11.667,12.5l4.167,3.752H30l0,0"/>
<path id="path32018" fill="#A6539B" d="M11.667,12.5H30v3.752"/>
<path id="path32020" fill="#A6539B" d="M15.834,16.252l4.167,7.498H30l0,0"/>
<path id="path32022" fill="#A6539B" d="M15.834,16.252H30v7.498"/>
<path id="path32024" fill="#A6539B" d="M21.667,26.248h6.667L25,28.752l0,0"/>
<path id="path32026" fill="#A6539B" d="M20.001,23.75l1.666,2.498h6.667l0,0"/>
<path id="path32028" fill="#A6539B" d="M20.001,23.75H30l-1.666,2.498l0,0"/>
<path id="path32030" fill="none" d="M0,0h30"/>
<path id="path32032" fill="none" d="M0,12.5l8.333-2.499l7.501,6.25l5.833,9.996L25,28.752l5-5.002"/>
</svg>
