<?xml version="1.0" encoding="utf-8"?>
<!-- Generator: Adobe Illustrator 16.0.0, SVG Export Plug-In . SVG Version: 6.00 Build 0)  -->
<!DOCTYPE svg PUBLIC "-//W3C//DTD SVG 1.1//EN" "http://www.w3.org/Graphics/SVG/1.1/DTD/svg11.dtd">
<svg version="1.1" id="Livello_1" xmlns="http://www.w3.org/2000/svg" xmlns:xlink="http://www.w3.org/1999/xlink" x="0px" y="0px"
	 width="30px" height="30px" viewBox="0 0 30 30" enable-background="new 0 0 30 30" xml:space="preserve">
<g id="g42864" transform="scale(1.00017,0.999834)">
	<path id="path42866" fill="none" d="M29.963,15.006c0-8.262-6.689-14.96-14.935-14.96c-8.25,0-14.934,6.698-14.934,14.96
		c0,8.267,6.685,14.965,14.934,14.965C23.273,29.972,29.963,23.273,29.963,15.006"/>
</g>
<path id="path42868" fill="#F07F1B" d="M14.778,10.132l-3.236,1.623h6.474l0,0"/>
<path id="path42870" fill="#F07F1B" d="M11.542,11.754l-1.617,3.244h9.708l0,0"/>
<path id="path42872" fill="#F07F1B" d="M11.542,11.754h6.474l1.617,3.244l0,0"/>
<path id="path42874" fill="#F07F1B" d="M11.542,18.238h6.474l-3.238,1.623l0,0"/>
<path id="path42876" fill="#F07F1B" d="M9.924,14.999l1.617,3.24h6.474l0,0"/>
<path id="path42878" fill="#F07F1B" d="M9.924,14.999h9.708l-1.617,3.24l0,0"/>
<g id="g42880" transform="scale(1.00017,0.999834)">
	<path id="path42882" fill="none" d="M19.892,15.006c0-2.692-2.178-4.873-4.864-4.873c-2.687,0-4.864,2.181-4.864,4.873
		c0,2.693,2.178,4.878,4.864,4.878C17.714,19.884,19.892,17.699,19.892,15.006"/>
</g>
<path id="path42884" fill="none" d="M14.778,14.999L14.778,14.999z"/>
<path id="path42886" fill="none" d="M14.778,14.999L14.778,14.999z"/>
</svg>
