<?xml version="1.0" encoding="utf-8"?>
<!-- Generator: Adobe Illustrator 16.0.0, SVG Export Plug-In . SVG Version: 6.00 Build 0)  -->
<!DOCTYPE svg PUBLIC "-//W3C//DTD SVG 1.1//EN" "http://www.w3.org/Graphics/SVG/1.1/DTD/svg11.dtd">
<svg version="1.1" id="Livello_1" xmlns="http://www.w3.org/2000/svg" xmlns:xlink="http://www.w3.org/1999/xlink" x="0px" y="0px"
	 width="30px" height="30px" viewBox="0 0 30 30" enable-background="new 0 0 30 30" xml:space="preserve">
<path id="path43248" fill="#2B4B9B" d="M15.132,0.499L9.575,1.297h11.118l0,0"/>
<path id="path43250" fill="#2B4B9B" d="M9.575,1.297L4.81,4.492h20.648l0,0"/>
<path id="path43252" fill="#2B4B9B" d="M9.575,1.297h11.118l4.766,3.195l0,0"/>
<path id="path43254" fill="#2B4B9B" d="M4.81,4.492L1.634,9.282h27l0,0"/>
<path id="path43256" fill="#2B4B9B" d="M4.81,4.492h20.648l3.176,4.791l0,0"/>
<path id="path43258" fill="#2B4B9B" d="M1.634,9.282l-1.588,5.588h29.382l0,0"/>
<path id="path43260" fill="#2B4B9B" d="M1.634,9.282h27l0.794,5.588l0,0"/>
<path id="path43262" fill="#A75492" d="M0.045,14.871l1.588,6.389h27l0,0"/>
<path id="path43264" fill="#A75492" d="M0.045,14.871h29.382l-0.794,6.389l0,0"/>
<path id="path43266" fill="#A75492" d="M1.634,21.26l3.176,4.79h20.648l0,0"/>
<path id="path43268" fill="#A75492" d="M1.634,21.26h27l-3.176,4.79l0,0"/>
<path id="path43270" fill="#A75492" d="M9.575,29.243h11.118l-5.56,0.799l0,0"/>
<path id="path43272" fill="#A75492" d="M4.81,26.05l4.765,3.193h11.118l0,0"/>
<path id="path43274" fill="#A75492" d="M4.81,26.05h20.648l-4.766,3.193l0,0"/>
<path id="path43276" fill="none" d="M15.132,15.668L15.132,15.668z"/>
<path id="path43278" fill="none" d="M15.132,15.668L15.132,15.668z"/>
<path id="path43280" fill="none" d="M15.132,14.871h14.295"/>
<path id="path43282" fill="none" d="M15.132,14.871H0.045"/>
<g id="g43284" transform="scale(1.00017,0.999834)">
	<path id="path43286" fill="none" d="M29.989,14.667c0-8.158-6.576-14.771-14.687-14.771c-8.113,0-14.69,6.613-14.69,14.771
		c0,8.158,6.577,14.772,14.69,14.772C23.413,29.439,29.989,22.825,29.989,14.667"/>
</g>
</svg>
