<?xml version="1.0" encoding="utf-8"?>
<!-- Generator: Adobe Illustrator 16.0.0, SVG Export Plug-In . SVG Version: 6.00 Build 0)  -->
<!DOCTYPE svg PUBLIC "-//W3C//DTD SVG 1.1//EN" "http://www.w3.org/Graphics/SVG/1.1/DTD/svg11.dtd">
<svg version="1.1" id="Livello_1" xmlns="http://www.w3.org/2000/svg" xmlns:xlink="http://www.w3.org/1999/xlink" x="0px" y="0px"
	 width="30px" height="30px" viewBox="0 0 30 30" enable-background="new 0 0 30 30" xml:space="preserve">
<path id="path32894" fill="#F07F1B" d="M5.085,0h10.169l-5.085,30l0,0"/>
<path id="path32896" fill="#F07F1B" d="M15.254,0h9.662l-5.085,30l0,0"/>
<path id="path32898" fill="#F07F1B" d="M0,0h5.085L0,30l0,0"/>
<path id="path32900" fill="#F07F1B" d="M5.085,0h10.169l-5.085,30l0,0"/>
<path id="path32902" fill="#F07F1B" d="M15.254,0h9.662l-5.085,30l0,0"/>
<path id="path32904" fill="#F07F1B" d="M24.916,0H30v30"/>
<path id="path32906" fill="none" d="M5.085,0l5.084,30l5.085-30l4.577,30l5.085-30"/>
<path id="path32908" fill="none" d="M0,30L5.085,0"/>
<path id="path32910" fill="none" d="M24.916,0L30,30V0"/>
<path id="path32912" fill="none" d="M0,30V0"/>
<path id="path32914" fill="none" d="M24.407,30H30"/>
<path id="path32916" fill="none" d="M4.068,30H0"/>
<path id="path32918" fill="none" d="M4.068,30h20.339"/>
<path id="path32920" fill="none" d="M24.916,0H30"/>
<path id="path32922" fill="none" d="M5.085,0h19.831"/>
<path id="path32924" fill="none" d="M5.085,0H0"/>
</svg>
