<?xml version="1.0" encoding="utf-8"?>
<!-- Generator: Adobe Illustrator 16.0.0, SVG Export Plug-In . SVG Version: 6.00 Build 0)  -->
<!DOCTYPE svg PUBLIC "-//W3C//DTD SVG 1.1//EN" "http://www.w3.org/Graphics/SVG/1.1/DTD/svg11.dtd">
<svg version="1.1" id="Livello_1" xmlns="http://www.w3.org/2000/svg" xmlns:xlink="http://www.w3.org/1999/xlink" x="0px" y="0px"
	 width="30px" height="30px" viewBox="0 0 30 30" enable-background="new 0 0 30 30" xml:space="preserve">
<path id="path32422" fill="#C98BBC" d="M0,0v1.303h10.402l0,0"/>
<path id="path32424" fill="#C98BBC" d="M27.159,1.303l-1.156,1.299h0.578l0,0"/>
<path id="path32426" fill="#C98BBC" d="M0,1.303l1.734,1.299h12.135l0,0"/>
<path id="path32428" fill="#C98BBC" d="M0,1.303h10.402l3.467,1.299l0,0"/>
<path id="path32430" fill="#C98BBC" d="M1.734,2.602l0.578,1.299h11.557l0,0"/>
<path id="path32432" fill="#C98BBC" d="M1.734,2.602h12.135v1.299"/>
<path id="path32434" fill="#C98BBC" d="M26.003,2.602l-0.577,2.602h0.577l0,0"/>
<path id="path32436" fill="#C98BBC" d="M26.003,2.602h0.578l-0.578,2.602l0,0"/>
<path id="path32438" fill="#C98BBC" d="M24.849,5.204h0.577l-0.577,2.598l0,0"/>
<path id="path32440" fill="#C98BBC" d="M25.426,5.204h-0.577H25.426L25.426,5.204"/>
<path id="path32442" fill="#C98BBC" d="M25.426,5.204h0.577H25.426L25.426,5.204"/>
<path id="path32444" fill="#C98BBC" d="M2.312,3.901l0.577,1.303h12.135l0,0"/>
<path id="path32446" fill="#C98BBC" d="M2.312,3.901h11.557l1.155,1.303l0,0"/>
<path id="path32448" fill="#C98BBC" d="M24.849,7.801v1.299"/>
<path id="path32450" fill="#C98BBC" d="M2.889,5.204l1.155,3.897h9.247l0,0"/>
<path id="path32452" fill="#C98BBC" d="M2.889,5.204h12.135l-1.733,3.897l0,0"/>
<path id="path32454" fill="#C98BBC" d="M4.044,9.101h8.667l0,0H4.044z"/>
<path id="path32456" fill="#C98BBC" d="M4.044,9.101h9.247h-0.579l0,0"/>
<path id="path32458" fill="#C98BBC" d="M4.044,9.101v2.602h8.667l0,0"/>
<path id="path32460" fill="#C98BBC" d="M4.044,9.101h8.667v2.602"/>
<path id="path32462" fill="#C98BBC" d="M24.849,9.101l-2.89,7.797h1.733l0,0"/>
<path id="path32464" fill="#C98BBC" d="M24.849,9.101L24.849,9.101l-1.156,7.797l0,0"/>
<path id="path32466" fill="#C98BBC" d="M4.044,11.702L5.201,18.2h12.712l0,0"/>
<path id="path32468" fill="#C98BBC" d="M4.044,11.702h8.667l5.201,6.498l0,0"/>
<path id="path32470" fill="#C98BBC" d="M5.201,18.2v2.598h12.712l0,0"/>
<path id="path32472" fill="#C98BBC" d="M5.201,18.2h12.712v2.598"/>
<path id="path32474" fill="#C98BBC" d="M21.959,16.897l-2.312,6.497h3.467l0,0"/>
<path id="path32476" fill="#C98BBC" d="M21.959,16.897h1.733l-0.578,6.497l0,0"/>
<path id="path32478" fill="#C98BBC" d="M19.647,23.395l-1.157,3.901h2.89l0,0"/>
<path id="path32480" fill="#C98BBC" d="M19.647,23.395h3.467l-1.734,3.901l0,0"/>
<path id="path32482" fill="#C98BBC" d="M18.49,27.296h1.734l-1.734,1.3l0,0"/>
<path id="path32484" fill="#C98BBC" d="M18.49,27.296h1.734l0,0H18.49z"/>
<path id="path32486" fill="#C98BBC" d="M18.49,27.296h2.89h-1.155l0,0"/>
<path id="path32488" fill="#C98BBC" d="M5.201,20.798l4.044,6.498h8.668l0,0"/>
<path id="path32490" fill="#C98BBC" d="M5.201,20.798h12.712v6.498"/>
<path id="path32492" fill="#C98BBC" d="M18.49,28.596h-0.577H18.49L18.49,28.596"/>
<path id="path32494" fill="#C98BBC" d="M9.245,27.296l2.312,1.3h6.356l0,0"/>
<path id="path32496" fill="#C98BBC" d="M9.245,27.296h8.668v1.3"/>
<path id="path32498" fill="#C98BBC" d="M17.913,28.596h0.577H17.913L17.913,28.596"/>
<path id="path32500" fill="#C98BBC" d="M11.557,28.596h6.356l0,0H11.557z"/>
<path id="path32502" fill="#C98BBC" d="M11.557,28.596h6.356l0,0"/>
<path id="path32504" fill="#C98BBC" d="M14.446,28.596h1.734l-0.579,1.298l0,0"/>
<path id="path32506" fill="#C98BBC" d="M11.557,28.596h4.624l0,0"/>
<path id="path32508" fill="#C98BBC" d="M11.557,28.596h6.356h-1.732l0,0"/>
<path id="path32510" fill="none" d="M0,0l10.979,1.303"/>
<path id="path32512" fill="#A75492" d="M0,0v1.303h0.578l0,0"/>
<path id="path32514" fill="#A75492" d="M10.402,1.303h0.577l0,0"/>
<path id="path32516" fill="#A75492" d="M10.979,1.303h19.068l0,0H10.979z"/>
<path id="path32518" fill="#A75492" d="M10.979,1.303h19.068l0,0H10.979z"/>
<path id="path32520" fill="#A75492" d="M10.979,1.303h16.18l0,0"/>
<path id="path32522" fill="#A75492" d="M10.979,1.303h19.068h-2.889l0,0"/>
<path id="path32524" fill="#A75492" d="M12.135,1.303l1.734,1.299h12.134l0,0"/>
<path id="path32526" fill="#A75492" d="M12.135,1.303h15.024l-1.156,1.299l0,0"/>
<path id="path32528" fill="#A75492" d="M0,1.303l2.312,2.598h0.577l0,0"/>
<path id="path32530" fill="#A75492" d="M0,1.303h0.578l2.312,2.598l0,0"/>
<path id="path32532" fill="#A75492" d="M13.869,2.602l0.577,2.602h10.979l0,0"/>
<path id="path32534" fill="#A75492" d="M13.869,2.602h12.134l-0.577,2.602l0,0"/>
<path id="path32536" fill="#A75492" d="M14.446,5.204h10.402l0,0"/>
<path id="path32538" fill="#A75492" d="M14.446,5.204h10.979h-0.577l0,0"/>
<path id="path32540" fill="#A75492" d="M2.312,3.901l1.732,5.2H8.09l0,0"/>
<path id="path32542" fill="#A75492" d="M2.312,3.901h0.577l5.201,5.2l0,0"/>
<path id="path32544" fill="#A75492" d="M15.024,5.204l-2.312,3.897h12.137l0,0"/>
<path id="path32546" fill="#A75492" d="M15.024,5.204h9.825v3.897"/>
<path id="path32548" fill="#A75492" d="M12.712,9.101v2.602H24.27l0,0"/>
<path id="path32550" fill="#A75492" d="M12.712,9.101h12.137l-0.579,2.602l0,0"/>
<path id="path32552" fill="#A75492" d="M12.712,11.702l4.624,5.195h6.356l0,0"/>
<path id="path32554" fill="#A75492" d="M12.712,11.702H24.27l-0.577,5.195l0,0"/>
<path id="path32556" fill="#A75492" d="M17.336,16.897l0.577,1.303h5.779l0,0"/>
<path id="path32558" fill="#A75492" d="M17.336,16.897h6.356V18.2"/>
<path id="path32560" fill="#A75492" d="M4.044,9.101l1.156,9.1h12.712l0,0"/>
<path id="path32562" fill="#A75492" d="M4.044,9.101H8.09l9.823,9.1l0,0"/>
<path id="path32564" fill="#A75492" d="M5.201,18.2v2.598h18.492l0,0"/>
<path id="path32566" fill="#A75492" d="M5.201,18.2h18.492v2.598"/>
<path id="path32568" fill="#A75492" d="M5.201,20.798l1.733,2.597h16.181l0,0"/>
<path id="path32570" fill="#A75492" d="M5.201,20.798h18.492l-0.578,2.597l0,0"/>
<path id="path32572" fill="#A75492" d="M6.934,23.395l2.312,3.901H21.38l0,0"/>
<path id="path32574" fill="#A75492" d="M6.934,23.395h16.181l-1.734,3.901l0,0"/>
<path id="path32576" fill="#A75492" d="M9.245,27.296h10.979l-4.623,2.598l0,0"/>
<path id="path32578" fill="#A75492" d="M9.245,27.296h10.979l0,0H9.245z"/>
<path id="path32580" fill="#A75492" d="M9.245,27.296H21.38h-1.155l0,0"/>
<path id="path32582" fill="none" d="M10.979,1.303h19.068"/>
<path id="path32584" fill="none" d="M0,0l2.312,3.901l1.732,5.2l1.156,11.697l4.044,6.498l6.356,2.598l5.778-2.598l1.734-3.901
	l0.578-6.497l1.733-11.694l1.733-3.901h2.889"/>
<path id="path32586" fill="none" d="M10.402,1.303l3.467,1.299l1.155,2.602l-2.312,3.897v2.602l5.201,6.498v10.396"/>
</svg>
