<?xml version="1.0" encoding="utf-8"?>
<!-- Generator: Adobe Illustrator 16.0.0, SVG Export Plug-In . SVG Version: 6.00 Build 0)  -->
<!DOCTYPE svg PUBLIC "-//W3C//DTD SVG 1.1//EN" "http://www.w3.org/Graphics/SVG/1.1/DTD/svg11.dtd">
<svg version="1.1" id="Livello_1" xmlns="http://www.w3.org/2000/svg" xmlns:xlink="http://www.w3.org/1999/xlink" x="0px" y="0px"
	 width="30px" height="30px" viewBox="0 0 30 30" enable-background="new 0 0 30 30" xml:space="preserve">
<path id="path32588" fill="none" d="M10.113,3.44L-0.103,29.982"/>
<path id="path32590" fill="none" d="M17.775,1.029l-5.619,28.954"/>
<path id="path32592" fill="none" d="M23.903,28.776L17.775,1.029"/>
<path id="path32594" fill="none" d="M30.034-0.177l-6.131,28.953"/>
<path id="path32596" fill="none" d="M12.157,29.982L10.113,3.44"/>
<path id="path32598" fill="#F07F1B" d="M10.113,3.44l2.044,24.127l5.619-26.539l0,0"/>
<path id="path32600" fill="#F07F1B" d="M12.157,27.567l5.619-26.539l-5.619,28.954l0,0"/>
<path id="path32602" fill="#A6539B" d="M10.113,3.44l2.044,24.127l5.619-26.539l0,0"/>
<path id="path32604" fill="#A6539B" d="M12.157,27.567l5.619-26.539l-5.619,28.954l0,0"/>
<path id="path32606" fill="#A6539B" d="M17.775,1.029l6.128,26.539l6.131-27.744l0,0"/>
<path id="path32608" fill="#A6539B" d="M23.903,27.567l6.131-27.744l-6.131,28.953l0,0"/>
<path id="path32610" fill="#2B4B9B" d="M17.775,1.029l-5.619,28.954l6.128-27.748l0,0"/>
<path id="path32612" fill="#2B4B9B" d="M12.157,29.982l6.128-27.748l5.618,26.542l0,0"/>
<path id="path32614" fill="#A6539B" d="M10.113,3.44l2.044,24.127l5.619-26.539l0,0"/>
<path id="path32616" fill="#A6539B" d="M12.157,27.567l5.619-26.539l-5.619,28.954l0,0"/>
<path id="path32618" fill="#E52620" d="M-0.103,29.982h4.598L10.113,3.44l0,0"/>
<path id="path32620" fill="#E52620" d="M4.495,29.982L10.113,3.44l2.044,26.542l0,0"/>
<path id="path32622" fill="none" d="M12.157,29.982l11.747-1.206"/>
<path id="path32624" fill="none" d="M-0.103,29.982h12.259"/>
</svg>
