<?xml version="1.0" encoding="utf-8"?>
<!-- Generator: Adobe Illustrator 16.0.0, SVG Export Plug-In . SVG Version: 6.00 Build 0)  -->
<!DOCTYPE svg PUBLIC "-//W3C//DTD SVG 1.1//EN" "http://www.w3.org/Graphics/SVG/1.1/DTD/svg11.dtd">
<svg version="1.1" id="Livello_1" xmlns="http://www.w3.org/2000/svg" xmlns:xlink="http://www.w3.org/1999/xlink" x="0px" y="0px"
	 width="30px" height="30px" viewBox="0 0 30 30" enable-background="new 0 0 30 30" xml:space="preserve">
<path id="path41420" fill="#A75492" d="M3.358,0.971L2.063,1.877h4.531l0,0"/>
<path id="path41422" fill="#A75492" d="M2.063,1.877L1.417,2.784h5.178l0,0"/>
<path id="path41424" fill="#A75492" d="M2.063,1.877h4.531v0.907"/>
<path id="path41426" fill="#A75492" d="M1.417,2.784v5.448h4.529l0,0"/>
<path id="path41428" fill="#A75492" d="M1.417,2.784h5.178L5.946,8.232l0,0"/>
<path id="path41430" fill="#A75492" d="M1.417,8.232v3.628h5.824l0,0"/>
<path id="path41432" fill="#A75492" d="M1.417,8.232h4.529l1.295,3.628l0,0"/>
<path id="path41434" fill="#A75492" d="M1.417,11.86h5.824l0,0H1.417z"/>
<path id="path41436" fill="#A75492" d="M1.417,11.86h5.824l0,0"/>
<path id="path41438" fill="#A75492" d="M16.302,11.86l-0.647,0.91h4.532l0,0"/>
<path id="path41440" fill="#A75492" d="M1.417,11.86l-1.294,0.91h7.766l0,0"/>
<path id="path41442" fill="#A75492" d="M1.417,11.86h5.824l0.647,0.91l0,0"/>
<path id="path41444" fill="#A75492" d="M15.654,12.771h5.179l0,0H15.654z"/>
<path id="path41446" fill="#A75492" d="M15.654,12.771h5.179l0,0"/>
<path id="path41448" fill="#A75492" d="M0.123,12.771v0.906h8.413l0,0"/>
<path id="path41450" fill="#A75492" d="M0.123,12.771h7.766l0.647,0.906l0,0"/>
<path id="path41452" fill="#A75492" d="M15.654,12.771l-3.236,1.813h9.061l0,0"/>
<path id="path41454" fill="#A75492" d="M15.654,12.771h5.179l0.646,1.813l0,0"/>
<path id="path41456" fill="#A75492" d="M0.123,13.677l0.647,0.907h11.649l0,0"/>
<path id="path41458" fill="#A75492" d="M0.123,13.677h8.413l3.883,0.907l0,0"/>
<path id="path41460" fill="#A75492" d="M0.77,14.584v1.814h21.357l0,0"/>
<path id="path41462" fill="#A75492" d="M0.77,14.584h20.71l0.647,1.814l0,0"/>
<path id="path41464" fill="#A75492" d="M0.77,16.398l1.294,2.724h20.709l0,0"/>
<path id="path41466" fill="#A75492" d="M0.77,16.398h21.357l0.646,2.724l0,0"/>
<path id="path41468" fill="#A75492" d="M20.187,19.122h2.586l-0.646,1.813l0,0"/>
<path id="path41470" fill="#A75492" d="M19.537,19.122h3.235l0,0"/>
<path id="path41472" fill="#A75492" d="M19.537,19.122h3.235l0,0"/>
<path id="path41474" fill="#A75492" d="M2.063,19.122h16.827l0,0"/>
<path id="path41476" fill="#A75492" d="M2.063,19.122h17.474h-0.646l0,0"/>
<path id="path41478" fill="#A75492" d="M4.005,21.846h11.649L5.3,24.567l0,0"/>
<path id="path41480" fill="#A75492" d="M2.71,19.122l1.295,2.724h11.649l0,0"/>
<path id="path41482" fill="#A75492" d="M2.71,19.122h16.18l-3.236,2.724l0,0"/>
<path id="path41484" fill="#2B4B9B" d="M20.833,0.063h3.882l0,0H20.833z"/>
<path id="path41486" fill="#2B4B9B" d="M6.595,1.877v1.817h0.646l0,0"/>
<path id="path41488" fill="#2B4B9B" d="M20.833,0.063l-2.589,3.631h9.061l0,0"/>
<path id="path41490" fill="#2B4B9B" d="M20.833,0.063h3.882l2.59,3.631l0,0"/>
<path id="path41492" fill="#2B4B9B" d="M18.244,3.694h9.707l0,0H18.244z"/>
<path id="path41494" fill="#2B4B9B" d="M18.244,3.694h9.707l0,0"/>
<path id="path41496" fill="#2B4B9B" d="M18.244,3.694l-6.473,4.538h15.533l0,0"/>
<path id="path41498" fill="#2B4B9B" d="M18.244,3.694h9.707l-0.646,4.538l0,0"/>
<path id="path41500" fill="#2B4B9B" d="M11.771,8.232h15.533l0,0H11.771z"/>
<path id="path41502" fill="#2B4B9B" d="M11.771,8.232h15.533l0,0"/>
<path id="path41504" fill="#2B4B9B" d="M6.595,3.694L5.946,8.232h5.825l0,0"/>
<path id="path41506" fill="#2B4B9B" d="M6.595,3.694h0.646l4.53,4.538l0,0"/>
<path id="path41508" fill="#2B4B9B" d="M5.946,8.232h21.358l0,0H5.946z"/>
<path id="path41510" fill="#2B4B9B" d="M5.946,8.232h21.358l0,0"/>
<path id="path41512" fill="#2B4B9B" d="M5.946,8.232l1.295,3.628h19.416l0,0"/>
<path id="path41514" fill="#2B4B9B" d="M5.946,8.232h21.358l-0.647,3.628l0,0"/>
<path id="path41516" fill="#2B4B9B" d="M16.302,11.86l4.531,0.91h5.824l0,0"/>
<path id="path41518" fill="#2B4B9B" d="M16.302,11.86h10.355v0.91"/>
<path id="path41520" fill="#2B4B9B" d="M7.241,11.86l0.647,0.91h7.766l0,0"/>
<path id="path41522" fill="#2B4B9B" d="M7.241,11.86h9.061l-0.647,0.91l0,0"/>
<path id="path41524" fill="#2B4B9B" d="M20.833,12.771v0.906h5.824l0,0"/>
<path id="path41526" fill="#2B4B9B" d="M20.833,12.771h5.824v0.906"/>
<path id="path41528" fill="#2B4B9B" d="M8.536,13.677h5.178l-1.295,0.907l0,0"/>
<path id="path41530" fill="#2B4B9B" d="M7.889,12.771l0.647,0.906h5.178l0,0"/>
<path id="path41532" fill="#2B4B9B" d="M7.889,12.771h7.766l-1.941,0.906l0,0"/>
<path id="path41534" fill="#2B4B9B" d="M20.833,13.677l1.294,3.631h5.824l0,0"/>
<path id="path41536" fill="#2B4B9B" d="M20.833,13.677h5.824l1.294,3.631l0,0"/>
<path id="path41538" fill="#2B4B9B" d="M19.537,19.122h-0.646h1.296l0,0"/>
<path id="path41540" fill="#2B4B9B" d="M22.127,17.308l0.646,1.814h6.473l0,0"/>
<path id="path41542" fill="#2B4B9B" d="M22.127,17.308h5.824l1.294,1.814l0,0"/>
<path id="path41544" fill="#2B4B9B" d="M22.772,19.122l-0.646,1.813h7.767l0,0"/>
<path id="path41546" fill="#2B4B9B" d="M22.772,19.122h6.473l0.648,1.813l0,0"/>
<path id="path41548" fill="#2B4B9B" d="M18.891,19.122l-1.294,1.813h4.53l0,0"/>
<path id="path41550" fill="#2B4B9B" d="M18.891,19.122h1.296l1.94,1.813l0,0"/>
<path id="path41552" fill="#2B4B9B" d="M17.597,20.936h-0.647h12.944l0,0"/>
<path id="path41554" fill="#2B4B9B" d="M17.597,20.936h12.297l0,0"/>
<path id="path41556" fill="#2B4B9B" d="M16.949,20.936l-1.295,0.91h13.591l0,0"/>
<path id="path41558" fill="#2B4B9B" d="M16.949,20.936h12.944l-0.648,0.91l0,0"/>
<path id="path41560" fill="#2B4B9B" d="M15.654,21.846l1.942,3.629h9.708l0,0"/>
<path id="path41562" fill="#2B4B9B" d="M15.654,21.846h13.591l-1.94,3.629l0,0"/>
<path id="path41564" fill="#2B4B9B" d="M17.597,25.475h9.708l0,0H17.597z"/>
<path id="path41566" fill="#2B4B9B" d="M17.597,25.475h9.708l0,0"/>
<path id="path41568" fill="#2B4B9B" d="M18.891,29.104h3.882l-3.882,0.907l0,0"/>
<path id="path41570" fill="#2B4B9B" d="M17.597,25.475l1.294,3.63h3.882l0,0"/>
<path id="path41572" fill="#2B4B9B" d="M17.597,25.475h9.708l-4.532,3.63l0,0"/>
<path id="path41574" fill="none" d="M1.417,10.953V2.784l1.941-1.813l2.588,0.906l3.884,5.445l5.177-0.907l5.179-5.444l1.94-0.907
	l3.235,0.907l1.942,2.724l0.646,2.721l-1.294,8.169l3.236,5.445l-1.295,3.631l-3.236,3.63l-3.235,1.814l-3.236,0.907l-1.294-7.259
	l-2.589-0.907h-3.236l-5.177,2.722l-2.589-1.814l-2.588-5.445l-1.294-4.537l1.294-0.91"/>
<path id="path41576" fill="none" d="M6.595,1.877L5.946,8.232l2.589,5.444l3.883,0.907l3.883-2.724l4.531,0.91l1.939,6.352
	l-0.646,1.813l-2.59-1.813l-3.883,2.724"/>
</svg>
