<?xml version="1.0" encoding="utf-8"?>
<!-- Generator: Adobe Illustrator 16.0.0, SVG Export Plug-In . SVG Version: 6.00 Build 0)  -->
<!DOCTYPE svg PUBLIC "-//W3C//DTD SVG 1.1//EN" "http://www.w3.org/Graphics/SVG/1.1/DTD/svg11.dtd">
<svg version="1.1" id="Livello_1" xmlns="http://www.w3.org/2000/svg" xmlns:xlink="http://www.w3.org/1999/xlink" x="0px" y="0px"
	 width="30px" height="30px" viewBox="0 0 30 30" enable-background="new 0 0 30 30" xml:space="preserve">
<path id="path32354" fill="none" d="M10.75,3.779L0.134,29.855"/>
<path id="path32356" fill="none" d="M18.182,1.297l-5.839,27.317"/>
<path id="path32358" fill="none" d="M24.021,28.614L18.182,1.297"/>
<path id="path32360" fill="none" d="M29.86,0.057l-5.84,28.558"/>
<path id="path32362" fill="none" d="M12.343,28.614L10.75,3.779"/>
<path id="path32364" fill="none" d="M12.343,28.614h11.678"/>
<path id="path32366" fill="none" d="M0.134,29.855l12.209-1.241"/>
<path id="path32368" fill="none" d="M10.75,3.779l7.432-2.482L29.86,0.057"/>
<path id="path32370" fill="#F07F1B" d="M18.182,1.297l-5.839,27.317h11.678l0,0"/>
<path id="path32372" fill="#F07F1B" d="M12.343,28.614h11.678H12.343L12.343,28.614"/>
<path id="path32374" fill="#A2569D" d="M10.75,3.779L0.666,28.614h11.677l0,0"/>
<path id="path32376" fill="#A2569D" d="M0.666,28.614h11.677L0.134,29.855l0,0"/>
</svg>
