<?xml version="1.0" encoding="utf-8"?>
<!-- Generator: Adobe Illustrator 16.0.0, SVG Export Plug-In . SVG Version: 6.00 Build 0)  -->
<!DOCTYPE svg PUBLIC "-//W3C//DTD SVG 1.1//EN" "http://www.w3.org/Graphics/SVG/1.1/DTD/svg11.dtd">
<svg version="1.1" id="Livello_1" xmlns="http://www.w3.org/2000/svg" xmlns:xlink="http://www.w3.org/1999/xlink" x="0px" y="0px"
	 width="30px" height="30px" viewBox="0 0 30 30" enable-background="new 0 0 30 30" xml:space="preserve">
<path id="path31844" fill="#2B4B9B" d="M1.078,14.086h28.223l-29.308,0.536l0,0"/>
<path id="path31846" fill="#2B4B9B" d="M14.103,0.141L1.078,14.086h28.223l0,0"/>
<path id="path31848" fill="#2B4B9B" d="M14.103,0.141L14.103,0.141l15.198,13.945l0,0"/>
<g id="g31850" transform="scale(1.00017,0.999834)">
	<path id="path31852" fill="none" d="M16.46,29.91L1.081,16.054"/>
</g>
<g id="g31854" transform="scale(1.00017,0.999834)">
	<path id="path31856" fill="none" d="M1.081,16.054l28.942-0.447"/>
</g>
<g id="g31858" transform="scale(1.00017,0.999834)">
	<path id="path31860" fill="none" d="M1.081,14.266l28.037-0.447"/>
</g>
<g id="g31862" transform="scale(1.00017,0.999834)">
	<path id="path31864" fill="none" d="M1.081,14.266L14.195-0.037"/>
</g>
<g id="g31866" transform="scale(1.00017,0.999834)">
	<path id="path31868" fill="none" d="M14.195-0.037l14.923,13.856"/>
</g>
<g id="g31870" transform="scale(1.00017,0.999834)">
	<path id="path31872" fill="none" d="M30.023,15.607L16.46,29.91"/>
</g>
</svg>
